<?xml version="1.0" encoding="UTF-8" standalone="no"?>
<!-- Created with Inkscape (http://www.inkscape.org/) -->
<svg xmlns:rdf="http://www.w3.org/1999/02/22-rdf-syntax-ns#" xmlns="http://www.w3.org/2000/svg" height="16" width="16" version="1.1" xmlns:cc="http://creativecommons.org/ns#" xmlns:dc="http://purl.org/dc/elements/1.1/" viewBox="0 0 4.2333331 4.2333335">
 <metadata>
  <rdf:RDF>
   <cc:Work rdf:about="">
    <dc:format>image/svg+xml</dc:format>
    <dc:type rdf:resource="http://purl.org/dc/dcmitype/StillImage"/>
    <dc:title/>
   </cc:Work>
  </rdf:RDF>
 </metadata>
 <path stroke-width=".33749" fill="#2f7cf6" d="m1.5952 1.0444-0.31908 0.49843h-0.95266c-0.10277 0-0.18551 0.082738-0.18551 0.18551v2.172c0 0.10277 0.082738 0.18551 0.18551 0.18551h3.5865c0.10276 0 0.18551-0.082738 0.18551-0.18551v-2.172c0-0.10277-0.082742-0.18551-0.18551-0.18551h-0.95266l-0.31908-0.49843h-1.043zm0.5215 0.90426a0.86572 0.86572 0 0 1 0.8657 0.8657 0.86572 0.86572 0 0 1 -0.8657 0.8657 0.86572 0.86572 0 0 1 -0.8657 -0.8657 0.86572 0.86572 0 0 1 0.8657 -0.8657z"/>
</svg>
