<?xml version="1.0" encoding="UTF-8" standalone="no"?>
<!-- Created with Inkscape (http://www.inkscape.org/) -->
<svg xmlns:rdf="http://www.w3.org/1999/02/22-rdf-syntax-ns#" xmlns="http://www.w3.org/2000/svg" height="450" width="800" version="1.1" xmlns:cc="http://creativecommons.org/ns#" xmlns:dc="http://purl.org/dc/elements/1.1/" viewBox="0 0 211.66666 119.06251">
 <metadata>
  <rdf:RDF>
   <cc:Work rdf:about="">
    <dc:format>image/svg+xml</dc:format>
    <dc:type rdf:resource="http://purl.org/dc/dcmitype/StillImage"/>
    <dc:title/>
   </cc:Work>
  </rdf:RDF>
 </metadata>
 <path d="m170.73 13.725v95.014c0 1.5516 1.7948 2.4877 2.8063 2.8063 8.5168 2.6828 12.941 4.6395 20.42 5.2118 0.93698 0.0717 6.3069-2.1695 6.3069-3.3355v-99.697c0-3.517-5.8482-8.6732-16.958-8.6538-2.5888 0.005-12.575 2.2798-12.575 8.6538z" fill-rule="evenodd" stroke="#000" stroke-width=".26458px" fill="#333"/>
 <path d="m166.71 13.725v95.014c0 1.5516 1.7948 2.4877 2.8063 2.8063 8.5168 2.6828 15.674 4.3004 23.119 5.2118 2.0804 0.25466 3.6081-0.78041 3.6081-2.8063v-100.23c0-3.517-5.8482-8.6732-16.958-8.6538-2.5888 0.005-12.575 2.2798-12.575 8.6538z" fill-rule="evenodd" stroke="#000" stroke-width=".26458" fill="#4d4d4d"/>
 <path d="m170.66 22.946v33.141c0 14.71 17.1 16.64 17.1 2.4054v-32.406c0-16.976-17.1-16.012-17.1-3.1404z" stroke="#1a1a1a" stroke-width=".26458px" fill="none"/>
 <path stroke-linejoin="round" d="m182.91 56.516c0 2.9225-1.5123 5.2917-3.7042 5.2917s-3.9687-2.3692-3.9687-5.2917 1.5123-5.2917 3.7042-5.2917 3.9688 2.3692 3.9688 5.2917z" stroke="#000" stroke-linecap="round" stroke-width=".26458" fill="none"/>
 <ellipse stroke-linejoin="round" stroke-linecap="round" rx="6.8053" ry="8.9983" stroke="#000" cy="24.718" cx="179.2" stroke-width=".26458" fill="#333"/>
 <ellipse stroke-linejoin="round" stroke-linecap="round" rx="5.906" ry="7.2556" stroke="#000" cy="24.6" cx="178.39" stroke-width=".26458" fill="#1a1a1a"/>
 <ellipse stroke-linejoin="round" stroke-linecap="round" rx="4.4278" ry="5.1655" stroke="#000" cy="24.137" cx="178.32" stroke-width=".26458" fill="#333"/>
 <ellipse stroke-linejoin="round" stroke-linecap="round" rx="2.558" ry="3.1965" stroke="#000" cy="23.989" cx="179.05" stroke-width=".26458" fill="#1a1a1a"/>
 <ellipse rx=".56127" ry=".84190" cy="22.612" cx="180.14" fill="#fff"/>
 <ellipse stroke-linejoin="round" stroke-linecap="round" rx="1.2862" ry="1.8709" stroke="#000" cy="36.106" cx="198.21" stroke-width=".13229" fill="#b3b3b3"/>
 <ellipse stroke-linejoin="round" stroke-linecap="round" rx="1.2862" ry="1.8709" stroke="#000" cy="49.058" cx="198.21" stroke-width=".13229" fill="#b3b3b3"/>
 <ellipse stroke-linejoin="round" stroke-linecap="round" rx="1.2862" ry="1.8709" stroke="#000" cy="61.975" cx="198.21" stroke-width=".13229" fill="#b3b3b3"/>
 <ellipse rx=".64131" ry="1.0689" cy="36.126" cx="198.22" fill="#35a4ff"/>
 <path d="m198.16 38.853v1.0418m-0.27492-0.58522c-0.3932 0.70598-0.0275 1.1082 0.25003 1.1079 0.28927-0.000333 0.72438-0.50816 0.32255-1.211" stroke="#b3b3b3" stroke-linecap="round" stroke-width=".13229" fill="none"/>
 <path fill="#b3b3b3" d="m198.28 46.234c0.006 0.07823-0.0632 0.18014-0.15018 0.14608-0.11274-0.05352-0.10891-0.25367 0.0111-0.29594 0.0857-0.0218 0.14219 0.07607 0.13909 0.14985zm-0.18673-0.76494c-0.17285 0.02066-0.32205 0.16386-0.3586 0.33216 0.0146 0.10065 0.14532 0.0621 0.14657-0.02468 0.0828-0.15636 0.3005-0.24225 0.45756-0.14385 0.0721 0.04069 0.11698 0.1119 0.16488 0.17592 0.0894 0.05512 0.14529-0.08391 0.064-0.13168-0.11102-0.14455-0.29075-0.23327-0.47442-0.20786zm-0.0293-0.56445c-0.29007 0.02483-0.55412 0.23716-0.6353 0.51754-0.01 0.10368 0.14503 0.08954 0.14191-0.0065 0.0859-0.22651 0.31954-0.3788 0.55956-0.38194 0.18446-0.01079 0.36626 0.07873 0.47813 0.22433 0.0423 0.05186 0.0931 0.17778 0.17305 0.099 0.0472-0.08297-0.0626-0.15185-0.10579-0.21269-0.15762-0.16055-0.38448-0.2612-0.61156-0.23976z"/>
 <path stroke-linejoin="round" d="m198.79 58.657 0.29766-0.13229c-0.0126-0.12282 0.003-0.29892-0.14677-0.28112-0.19311 0.02301-0.15159 0.21692-0.15001 0.41312 0.002 0.24872 0.16472 0.28569 0.28024 0.20699m-0.463-0.133a0.14883 0.3266 0 0 1 -0.14883 0.3266 0.14883 0.3266 0 0 1 -0.14882 -0.3266 0.14883 0.3266 0 0 1 0.14882 -0.3266 0.14883 0.3266 0 0 1 0.14883 0.3266zm-0.43822 0.10336a0.1571 0.3266 0 0 1 -0.15709 0.3266 0.1571 0.3266 0 0 1 -0.1571 -0.3266 0.1571 0.3266 0 0 1 0.1571 -0.3266 0.1571 0.3266 0 0 1 0.15709 0.3266zm0.44649-1.0873v1.2898m-1.4139 0.32246 0.0331-1.2402 0.20671 1.2072 0.25632-1.265v1.1658" stroke="#b3b3b3" stroke-linecap="round" stroke-width=".10583" fill="none"/>
 <path fill-rule="evenodd" fill="#35a4ff" d="m178.88 79.23-0.32484 0.6503-0.98951-0.10299c-0.21123-0.022-0.36821 0.24117-0.36731 0.40979l0.0138 2.6c0.001 0.20773 0.1842 0.38589 0.40418 0.41666l3.6244 0.50711c0.17067 0.0239 0.35993-0.11325 0.36107-0.26862l0.0207-2.8321c0.002-0.20613-0.11618-0.3975-0.43791-0.4379l-0.86269-0.10835-0.3392-0.79148zm0.4312 1.3993c0.45902 0 0.8833 0.46507 0.8833 1.0389 0 0.57378-0.29374 1.0395-0.75275 1.0395-0.45902 0-0.90954-0.4657-0.90954-1.0395 0-0.57378 0.31997-1.0389 0.77899-1.0389z"/>
 <path fill-rule="evenodd" fill="#666" d="m181.66 86.204-0.0799-0.005-0.47842 0.5482v1.009l0.46667 0.61207 0.0918 0.003zm-4.2229-0.51774-0.04 1.8191c-0.004 0.16951 0.0758 0.40815 0.25987 0.43978l2.5587 0.43978c0.25019 0.043 0.47977-0.15533 0.47977-0.35982v-1.8591c0-0.1784-0.0826-0.358-0.35983-0.3998l-2.5187-0.37982c-0.15984-0.0241-0.37516 0.0874-0.37983 0.29986z"/>
 <ellipse rx=".81983" ry="1.0177" cy="93.754" cx="179.36" fill="#666"/>
 <path fill="#666" d="m178.89 76.818c0 0.33297 0.26139 0.60289 0.58366 0.60289 0.32235 0 0.58366-0.26992 0.58366-0.60289s-0.26139-0.6029-0.58366-0.6029c-0.32235 0-0.58366 0.26992-0.58366 0.6029zm0.71796-1.8847c0.62926 0.0575 0.85631 0.31975 1.174 0.80717l-0.44422 0.39438c-0.1181-0.3722-0.43854-0.63887-0.75543-0.65737-0.53614-0.0313-0.77607 0.0708-1.1267 0.50134l-0.34473-0.42573c0.5094-0.47312 0.96245-0.66864 1.497-0.61979zm2.1138-0.045-0.48019 0.40555c-0.26139-0.6847-0.94074-1.0574-1.5169-1.0834-0.89411-0.0403-1.4816 0.30121-1.9379 0.9184l-0.43987-0.4044c0.56262-0.80019 1.4636-1.1569 2.4137-1.0739 0.87656 0.0766 1.5236 0.43936 1.9612 1.2377z"/>
 <path d="m196.23 15.953 3.9756-0.74836" stroke="#000" stroke-width=".26458" fill="none"/>
 <path stroke-linejoin="round" d="m180.68 89.974 0.79403 0.13106c0.0681-0.26416-0.0254-0.55886-0.33388-0.57035-0.33622-0.0126-0.47428 0.30549-0.47549 0.51635-0.001 0.1746 0.0811 0.49091 0.28415 0.54677 0.12003 0.0102 0.3184 0.0407 0.4588-0.14775m-2.5216-1.3755v0m0.64492 0.35547 0.28139 1.0302 0.38833-0.91805m-1.3064 0.0521v0.71935m-1.3524-1.6401v1.4032l0.83055 0.12183" stroke="#666" stroke-linecap="round" stroke-width=".26458px" fill="none"/>
 <path fill-rule="evenodd" fill="#666" d="m177.99 99.904v3.6215l2.7781 0.71107v-2.9104l-0.89297-0.99219-1.8852-0.42994zm1.3198 0.88986a0.19846 0.19846 0 0 1 0.20154 0.20154v1.4061a0.19846 0.19846 0 1 1 -0.39688 0v-1.4061a0.19846 0.19846 0 0 1 0.19534 -0.20154zm0.003 2.0702a0.20671 0.20671 0 0 1 0.20671 0.20671 0.20671 0.20671 0 0 1 -0.20671 0.2067 0.20671 0.20671 0 0 1 -0.2067 -0.2067 0.20671 0.20671 0 0 1 0.2067 -0.20671z"/>
 <path fill="#fff" d="m180.21 47.212c0 0.37129-0.30099 0.6369-0.67228 0.6369s-0.67228-0.33637-0.67228-0.70766 0.30099-0.6369 0.67228-0.6369 0.67228 0.33637 0.67228 0.70766z"/>
 <path d="m177.96 82.97-13.222 14.523h-79.333" stroke="#f00" stroke-width=".79375" fill="none"/>
 <text style="word-spacing:0px;letter-spacing:0px" xml:space="preserve" font-size="6.35px" y="95.08075" x="89.815392" font-family="sans-serif" line-height="125%" fill="#ff0000"><tspan font-size="6.35px" y="95.08075" x="89.815392" stroke-width=".26458px" fill="#ff0000">Ready to take a picture.</tspan></text>
 <g stroke-width=".79375" transform="translate(-7.6276 -23.736)">
  <circle stroke="#ccc" cy="82.493" cx="39.666" r="19.655" fill="#f9f9f9"/>
  <circle stroke="#ccc" cy="88.926" cx="39.666" r="6.9276" fill="#f9f9f9"/>
  <g transform="translate(-.084274)" stroke="#ff4000" fill="none">
   <path d="m38.334 77.697c-0.56241-1.0953-1.2051-2.5003 0.39101-2.9307v-2.1002c0-0.86423 1.3003-0.91652 1.2933 0l-0.01662 2.1657c1.162 0.04392 1.9649 0.22459 2.1359 0.77127 0.18286 0.58463-0.25853 1.4272-1.0039 2.2962" stroke-linecap="round" stroke-width=".79375"/>
   <path d="m35.229 71.998c0.06202-5.5914 8.5736-5.7173 8.5736 0" stroke-width=".52917"/>
   <path d="m37.183 71.944c0.03211-2.8949 4.4389-2.9601 4.4389 0" stroke-width=".79375"/>
  </g>
  <circle stroke="#ccc" cy="81.855" cx="53.219" r="1.6821" fill="#f9f9f9"/>
 </g>
 <path d="m32.052 64.163 13.222 14.523h79.333" stroke="#f00" stroke-width=".79375" fill="none"/>
 <text style="word-spacing:0px;letter-spacing:0px" xml:space="preserve" font-size="6.35px" y="75.478142" x="56.565411" font-family="sans-serif" line-height="125%" fill="#ff0000"><tspan font-size="6.35px" y="75.478142" x="56.565411" stroke-width=".26458px" fill="#ff0000">Cilck to take a picture.</tspan></text>
 <text style="word-spacing:0px;letter-spacing:0px" xml:space="preserve" font-size="6.35px" y="87.865494" x="12.924056" font-family="sans-serif" line-height="125%" fill="#1a1a1a"><tspan font-size="6.35px" y="87.865494" x="12.924056" stroke-width=".26458px" fill="#1a1a1a">Pochiru (eco)</tspan></text>
</svg>
