<?xml version="1.0" encoding="UTF-8" standalone="no"?>
<!-- Created with Inkscape (http://www.inkscape.org/) -->
<svg xmlns:rdf="http://www.w3.org/1999/02/22-rdf-syntax-ns#" xmlns="http://www.w3.org/2000/svg" height="450" width="800" version="1.1" xmlns:cc="http://creativecommons.org/ns#" xmlns:dc="http://purl.org/dc/elements/1.1/" viewBox="0 0 211.66666 119.06251">
 <metadata>
  <rdf:RDF>
   <cc:Work rdf:about="">
    <dc:format>image/svg+xml</dc:format>
    <dc:type rdf:resource="http://purl.org/dc/dcmitype/StillImage"/>
    <dc:title/>
   </cc:Work>
  </rdf:RDF>
 </metadata>
 <path d="m170.73 13.725v95.014c0 1.5516 1.7948 2.4877 2.8063 2.8063 8.5168 2.6828 12.941 4.6395 20.42 5.2118 0.93698 0.0717 6.3069-2.1695 6.3069-3.3355v-99.697c0-3.517-5.8482-8.6732-16.958-8.6538-2.5888 0.005-12.575 2.2798-12.575 8.6538z" fill-rule="evenodd" stroke="#000" stroke-width=".26458px" fill="#333"/>
 <path d="m166.71 13.725v95.014c0 1.5516 1.7948 2.4877 2.8063 2.8063 8.5168 2.6828 15.674 4.3004 23.119 5.2118 2.0804 0.25466 3.6081-0.78041 3.6081-2.8063v-100.23c0-3.517-5.8482-8.6732-16.958-8.6538-2.5888 0.005-12.575 2.2798-12.575 8.6538z" fill-rule="evenodd" stroke="#000" stroke-width=".26458" fill="#4d4d4d"/>
 <path stroke="#1a1a1a" stroke-width=".26458px" d="m170.66 22.946v33.141c0 14.71 17.1 16.64 17.1 2.4054v-32.406c0-16.976-17.1-16.012-17.1-3.1404z" fill="none"/>
 <path stroke-linejoin="round" d="m182.91 56.516c0 2.9225-1.5123 5.2917-3.7042 5.2917s-3.9687-2.3692-3.9687-5.2917 1.5123-5.2917 3.7042-5.2917 3.9688 2.3692 3.9688 5.2917z" stroke="#000" stroke-linecap="round" stroke-width=".26458" fill="none"/>
 <ellipse stroke-linejoin="round" cx="179.2" cy="24.718" rx="6.8053" ry="8.9983" stroke="#000" stroke-linecap="round" stroke-width=".26458" fill="#333"/>
 <ellipse stroke-linejoin="round" cx="178.39" cy="24.6" rx="5.906" ry="7.2556" stroke="#000" stroke-linecap="round" stroke-width=".26458" fill="#1a1a1a"/>
 <ellipse stroke-linejoin="round" cx="178.32" cy="24.137" rx="4.4278" ry="5.1655" stroke="#000" stroke-linecap="round" stroke-width=".26458" fill="#333"/>
 <ellipse stroke-linejoin="round" cx="179.05" cy="23.989" rx="2.558" ry="3.1965" stroke="#000" stroke-linecap="round" stroke-width=".26458" fill="#1a1a1a"/>
 <ellipse rx=".56127" ry=".8419" cy="22.612" cx="180.14" fill="#fff"/>
 <ellipse stroke-linejoin="round" cx="198.21" cy="36.106" rx="1.2862" ry="1.8709" stroke="#000" stroke-linecap="round" stroke-width=".13229" fill="#b3b3b3"/>
 <ellipse stroke-linejoin="round" cx="198.21" cy="49.058" rx="1.2862" ry="1.8709" stroke="#000" stroke-linecap="round" stroke-width=".13229" fill="#b3b3b3"/>
 <ellipse stroke-linejoin="round" cx="198.21" cy="61.975" rx="1.2862" ry="1.8709" stroke="#000" stroke-linecap="round" stroke-width=".13229" fill="#b3b3b3"/>
 <ellipse rx=".64131" ry="1.0689" cy="36.126" cx="198.22" fill="#35a4ff"/>
 <path d="m198.16 38.853v1.0418m-0.27492-0.58522c-0.3932 0.70598-0.0275 1.1082 0.25003 1.1079 0.28927-0.000333 0.72438-0.50816 0.32255-1.211" stroke="#b3b3b3" stroke-linecap="round" stroke-width=".13229" fill="none"/>
 <path d="m198.28 46.234c0.006 0.07823-0.0632 0.18014-0.15018 0.14608-0.11274-0.05352-0.10891-0.25367 0.0111-0.29594 0.0857-0.0218 0.14219 0.07607 0.13909 0.14985zm-0.18673-0.76494c-0.17285 0.02066-0.32205 0.16386-0.3586 0.33216 0.0146 0.10065 0.14532 0.0621 0.14657-0.02468 0.0828-0.15636 0.3005-0.24225 0.45756-0.14385 0.0721 0.04069 0.11698 0.1119 0.16488 0.17592 0.0894 0.05512 0.14529-0.08391 0.064-0.13168-0.11102-0.14455-0.29075-0.23327-0.47442-0.20786zm-0.0293-0.56445c-0.29007 0.02483-0.55412 0.23716-0.6353 0.51754-0.01 0.10368 0.14503 0.08954 0.14191-0.0065 0.0859-0.22651 0.31954-0.3788 0.55956-0.38194 0.18446-0.01079 0.36626 0.07873 0.47813 0.22433 0.0423 0.05186 0.0931 0.17778 0.17305 0.099 0.0472-0.08297-0.0626-0.15185-0.10579-0.21269-0.15762-0.16055-0.38448-0.2612-0.61156-0.23976z" fill="#b3b3b3"/>
 <path stroke-linejoin="round" d="m198.79 58.657 0.29766-0.13229c-0.0126-0.12282 0.003-0.29892-0.14677-0.28112-0.19311 0.02301-0.15159 0.21692-0.15001 0.41312 0.002 0.24872 0.16472 0.28569 0.28024 0.20699m-0.463-0.133a0.14883 0.3266 0 0 1 -0.14883 0.3266 0.14883 0.3266 0 0 1 -0.14882 -0.3266 0.14883 0.3266 0 0 1 0.14882 -0.3266 0.14883 0.3266 0 0 1 0.14883 0.3266zm-0.43822 0.10336a0.1571 0.3266 0 0 1 -0.15709 0.3266 0.1571 0.3266 0 0 1 -0.1571 -0.3266 0.1571 0.3266 0 0 1 0.1571 -0.3266 0.1571 0.3266 0 0 1 0.15709 0.3266zm0.44649-1.0873v1.2898m-1.4139 0.32246 0.0331-1.2402 0.20671 1.2072 0.25632-1.265v1.1658" stroke="#b3b3b3" stroke-linecap="round" stroke-width=".10583" fill="none"/>
 <path fill="#35a4ff" d="m178.88 79.23-0.32484 0.6503-0.98951-0.10299c-0.21123-0.022-0.36821 0.24117-0.36731 0.40979l0.0138 2.6c0.001 0.20773 0.1842 0.38589 0.40418 0.41666l3.6244 0.50711c0.17067 0.0239 0.35993-0.11325 0.36107-0.26862l0.0207-2.8321c0.002-0.20613-0.11618-0.3975-0.43791-0.4379l-0.86269-0.10835-0.3392-0.79148zm0.4312 1.3993c0.45902 0 0.8833 0.46507 0.8833 1.0389 0 0.57378-0.29374 1.0395-0.75275 1.0395-0.45902 0-0.90954-0.4657-0.90954-1.0395 0-0.57378 0.31997-1.0389 0.77899-1.0389z" fill-rule="evenodd"/>
 <path fill="#666" d="m181.66 86.204-0.0799-0.005-0.47842 0.5482v1.009l0.46667 0.61207 0.0918 0.003zm-4.2229-0.51774-0.04 1.8191c-0.004 0.16951 0.0758 0.40815 0.25987 0.43978l2.5587 0.43978c0.25019 0.043 0.47977-0.15533 0.47977-0.35982v-1.8591c0-0.1784-0.0826-0.358-0.35983-0.3998l-2.5187-0.37982c-0.15984-0.0241-0.37516 0.0874-0.37983 0.29986z" fill-rule="evenodd"/>
 <ellipse rx=".81983" ry="1.0177" cy="93.754" cx="179.36" fill="#666"/>
 <path d="m178.89 76.818c0 0.33297 0.26139 0.60289 0.58366 0.60289 0.32235 0 0.58366-0.26992 0.58366-0.60289s-0.26139-0.6029-0.58366-0.6029c-0.32235 0-0.58366 0.26992-0.58366 0.6029zm0.71796-1.8847c0.62926 0.0575 0.85631 0.31975 1.174 0.80717l-0.44422 0.39438c-0.1181-0.3722-0.43854-0.63887-0.75543-0.65737-0.53614-0.0313-0.77607 0.0708-1.1267 0.50134l-0.34473-0.42573c0.5094-0.47312 0.96245-0.66864 1.497-0.61979zm2.1138-0.045-0.48019 0.40555c-0.26139-0.6847-0.94074-1.0574-1.5169-1.0834-0.89411-0.0403-1.4816 0.30121-1.9379 0.9184l-0.43987-0.4044c0.56262-0.80019 1.4636-1.1569 2.4137-1.0739 0.87656 0.0766 1.5236 0.43936 1.9612 1.2377z" fill="#666"/>
 <path stroke="#000" stroke-width=".26458" d="m196.23 15.953 3.9756-0.74836" fill="none"/>
 <path stroke-linejoin="round" d="m180.68 89.974 0.79403 0.13106c0.0681-0.26416-0.0254-0.55886-0.33388-0.57035-0.33622-0.0126-0.47428 0.30549-0.47549 0.51635-0.001 0.1746 0.0811 0.49091 0.28415 0.54677 0.12003 0.0102 0.3184 0.0407 0.4588-0.14775m-2.5216-1.3755v0m0.64492 0.35547 0.28139 1.0302 0.38833-0.91805m-1.3064 0.0521v0.71935m-1.3524-1.6401v1.4032l0.83055 0.12183" stroke="#666" stroke-linecap="round" stroke-width=".26458px" fill="none"/>
 <path fill="#666" d="m177.99 99.904v3.6215l2.7781 0.71107v-2.9104l-0.89297-0.99219-1.8852-0.42994zm1.3198 0.88986a0.19846 0.19846 0 0 1 0.20154 0.20154v1.4061a0.19846 0.19846 0 1 1 -0.39688 0v-1.4061a0.19846 0.19846 0 0 1 0.19534 -0.20154zm0.003 2.0702a0.20671 0.20671 0 0 1 0.20671 0.20671 0.20671 0.20671 0 0 1 -0.20671 0.2067 0.20671 0.20671 0 0 1 -0.2067 -0.2067 0.20671 0.20671 0 0 1 0.2067 -0.20671z" fill-rule="evenodd"/>
 <path d="m180.21 47.212c0 0.37129-0.30099 0.6369-0.67228 0.6369s-0.67228-0.33637-0.67228-0.70766 0.30099-0.6369 0.67228-0.6369 0.67228 0.33637 0.67228 0.70766z" fill="#fff"/>
 <path stroke="#f00" stroke-width=".79375" d="m177.96 82.97-13.222 14.523h-79.333" fill="none"/>
 <path stroke-width=".26458px" fill="#f00" d="m155.68 94.405h0.64802v0.67593h-0.64802v-0.67593zm-2.2851-2.7192q0.35346 0 0.68522 0.16743 0.33177 0.16433 0.5054 0.42788 0.16743 0.25115 0.22324 0.58601 0.0496 0.22944 0.0496 0.73174h-2.434q0.0155 0.5054 0.23875 0.81235 0.22324 0.30386 0.69143 0.30386 0.43718 0 0.69763-0.28835 0.14883-0.16743 0.21084-0.38757h0.5488q-0.0217 0.18293-0.14572 0.40928-0.12093 0.22324-0.27286 0.36587-0.25424 0.24805-0.62942 0.33486-0.20153 0.04961-0.45578 0.04961-0.62012 0-1.0511-0.44958-0.43098-0.45269-0.43098-1.265 0-0.79995 0.43408-1.2991 0.43408-0.49919 1.1348-0.49919zm0.88986 1.4697q-0.0341-0.36277-0.15813-0.57981-0.22944-0.40308-0.76584-0.40308-0.38447 0-0.64492 0.27905-0.26045 0.27595-0.27596 0.70383h1.8448zm-0.94257-1.4759zm-3.4354 0.08062h0.5302v0.57361q0.0651-0.16743 0.31936-0.40618 0.25425-0.24185 0.58601-0.24185 0.0155 0 0.0527 0.0031t0.12712 0.0124v0.58911q-0.0496-0.0093-0.093-0.0124-0.0403-0.0031-0.0899-0.0031-0.42168 0-0.64802 0.27285-0.22635 0.26975-0.22635 0.62322v1.91h-0.5581v-3.3207zm-2.9921 0v2.2045q0 0.25425 0.0806 0.41548 0.14882 0.29766 0.555 0.29766 0.58291 0 0.79375-0.5209 0.11472-0.27905 0.11472-0.76584v-1.6309h0.55811v3.3207h-0.5271l0.006-0.48989q-0.10852 0.18914-0.26975 0.31936-0.31936 0.26045-0.77515 0.26045-0.71003 0-0.96738-0.47439-0.13953-0.25425-0.13953-0.67903v-2.2572h0.57051zm0.76585-0.08062zm-2.9735-0.84646h0.5643v0.92708h0.5302v0.45579h-0.5302v2.1673q0 0.17363 0.11782 0.23254 0.0651 0.03411 0.21705 0.03411 0.0403 0 0.0868 0 0.0465-0.0031 0.10852-0.0093v0.44028q-0.0961 0.02791-0.20154 0.04031-0.10231 0.0124-0.22324 0.0124-0.39067 0-0.5302-0.19844-0.13952-0.20154-0.13952-0.5209v-2.1983h-0.44959v-0.45579h0.44959v-0.92708zm-2.0061 0.83096q0.5612 0 0.91157 0.27285 0.35347 0.27285 0.42478 0.93948h-0.5426q-0.0496-0.30696-0.22635-0.5085-0.17673-0.20464-0.5674-0.20464-0.5333 0-0.76275 0.5209-0.14882 0.33796-0.14882 0.83406 0 0.4992 0.21083 0.84026 0.21084 0.34106 0.66353 0.34106 0.34727 0 0.5488-0.21084 0.20464-0.21394 0.28216-0.58291h0.5426q-0.093 0.66042-0.46509 0.96738-0.37207 0.30386-0.95188 0.30386-0.65112 0-1.0387-0.47439-0.38758-0.47749-0.38758-1.1906 0-0.87436 0.42478-1.3612 0.42478-0.48679 1.0821-0.48679zm-0.0868 0.0155zm-2.6076 0.09612h0.5674v3.3052h-0.5674v-3.3052zm0-1.2495h0.5674v0.63252h-0.5674v-0.63252zm-2.1332 4.1796q0.39068 0 0.64803-0.32556 0.26045-0.32866 0.26045-0.97978 0-0.39688-0.11473-0.68213-0.21704-0.5488-0.79375-0.5488-0.57981 0-0.79375 0.57981-0.11472 0.31006-0.11472 0.78755 0 0.38447 0.11472 0.65422 0.21705 0.5147 0.79375 0.5147zm-1.4449-2.9301h0.5426v0.44028q0.16744-0.22634 0.36587-0.35037 0.28216-0.18604 0.66353-0.18604 0.5643 0 0.95808 0.43408 0.39377 0.43098 0.39377 1.234 0 1.0852-0.5674 1.5503-0.35967 0.29456-0.83716 0.29456-0.37517 0-0.62942-0.16433-0.14883-0.09302-0.33176-0.31936v1.696h-0.55811v-4.6292zm-4.8245 2.4216q0 0.24184 0.17673 0.38137t0.41858 0.13953q0.29456 0 0.57051-0.13643 0.46509-0.22634 0.46509-0.74104v-0.44958q-0.10232 0.06511-0.26355 0.10852t-0.31626 0.06201l-0.33797 0.04341q-0.30386 0.04031-0.45578 0.12712-0.25735 0.14573-0.25735 0.46509zm1.3518-1.1286q0.19224-0.0248 0.25735-0.16123 0.0372-0.07441 0.0372-0.21394 0-0.28525-0.20464-0.41238-0.20154-0.13022-0.57981-0.13022-0.43718 0-0.62012 0.23564-0.10232 0.13022-0.13332 0.38757h-0.5209q0.0155-0.61392 0.39687-0.85266 0.38448-0.24184 0.88987-0.24184 0.58601 0 0.95188 0.22324 0.36277 0.22324 0.36277 0.69453v1.9131q0 0.08682 0.0341 0.13953 0.0372 0.05271 0.15193 0.05271 0.0372 0 0.0837-0.0031 0.0465-0.0062 0.0992-0.0155v0.41238q-0.13022 0.03721-0.19844 0.04651-0.0682 0.0093-0.18603 0.0093-0.28836 0-0.41858-0.20464-0.0682-0.10852-0.0961-0.30696-0.17053 0.22324-0.48989 0.38757t-0.70383 0.16433q-0.46199 0-0.75655-0.27905-0.29145-0.28215-0.29145-0.70383 0-0.46199 0.28835-0.71624 0.28836-0.25425 0.75654-0.31316l0.88987-0.11162zm-0.46198-1.3891zm-5.2307 0.0062q0.35347 0 0.68523 0.16743 0.33176 0.16433 0.50539 0.42788 0.16744 0.25115 0.22325 0.58601 0.0496 0.22944 0.0496 0.73174h-2.434q0.0155 0.5054 0.23874 0.81235 0.22324 0.30386 0.69143 0.30386 0.43718 0 0.69763-0.28835 0.14883-0.16743 0.21084-0.38757h0.54881q-0.0217 0.18293-0.14573 0.40928-0.12092 0.22324-0.27285 0.36587-0.25425 0.24805-0.62942 0.33486-0.20154 0.04961-0.45579 0.04961-0.62012 0-1.0511-0.44958-0.43098-0.45269-0.43098-1.265 0-0.79995 0.43408-1.2991 0.43409-0.49919 1.1348-0.49919zm0.88987 1.4697q-0.0341-0.36277-0.15813-0.57981-0.22945-0.40308-0.76585-0.40308-0.38447 0-0.64492 0.27905-0.26045 0.27595-0.27595 0.70383h1.8448zm-0.94258-1.4759zm-4.5176-1.1534h0.5364v2.6448l1.4325-1.4108h0.71313l-1.2712 1.2433 1.3426 2.0774h-0.71314l-1.0356-1.6743-0.46819 0.42788v1.2464h-0.5364v-4.5548zm-3.0944 3.6711q0 0.24184 0.17673 0.38137 0.17674 0.13953 0.41858 0.13953 0.29456 0 0.57051-0.13643 0.46509-0.22634 0.46509-0.74104v-0.44958q-0.10232 0.06511-0.26355 0.10852t-0.31626 0.06201l-0.33796 0.04341q-0.30386 0.04031-0.45579 0.12712-0.25735 0.14573-0.25735 0.46509zm1.3519-1.1286q0.19223-0.0248 0.25734-0.16123 0.0372-0.07441 0.0372-0.21394 0-0.28525-0.20464-0.41238-0.20153-0.13022-0.57981-0.13022-0.43718 0-0.62011 0.23564-0.10232 0.13022-0.13333 0.38757h-0.5209q0.0155-0.61392 0.39688-0.85266 0.38447-0.24184 0.88987-0.24184 0.58601 0 0.95188 0.22324 0.36276 0.22324 0.36276 0.69453v1.9131q0 0.08682 0.0341 0.13953 0.0372 0.05271 0.15193 0.05271 0.0372 0 0.0837-0.0031 0.0465-0.0062 0.0992-0.0155v0.41238q-0.13022 0.03721-0.19843 0.04651-0.0682 0.0093-0.18604 0.0093-0.28835 0-0.41858-0.20464-0.0682-0.10852-0.0961-0.30696-0.17053 0.22324-0.48989 0.38757t-0.70383 0.16433q-0.46199 0-0.75654-0.27905-0.29146-0.28215-0.29146-0.70383 0-0.46199 0.28836-0.71624 0.28835-0.25425 0.75654-0.31316l0.88987-0.11162zm-0.46199-1.3891zm-2.9673-0.84646h0.5643v0.92708h0.5302v0.45579h-0.5302v2.1673q0 0.17363 0.11783 0.23254 0.0651 0.03411 0.21704 0.03411 0.0403 0 0.0868 0 0.0465-0.0031 0.10852-0.0093v0.44028q-0.0961 0.02791-0.20153 0.04031-0.10232 0.0124-0.22325 0.0124-0.39067 0-0.5302-0.19844-0.13952-0.20154-0.13952-0.5209v-2.1983h-0.44959v-0.45579h0.44959v-0.92708zm-4.0897 3.8881q0.55501 0 0.75965-0.41858 0.20774-0.42168 0.20774-0.93638 0-0.46509-0.14883-0.75654-0.23565-0.45889-0.81235-0.45889-0.5116 0-0.74414 0.39067-0.23255 0.39067-0.23255 0.94258 0 0.5302 0.23255 0.88367 0.23254 0.35347 0.73793 0.35347zm0.0217-3.0572q0.64182 0 1.0852 0.42788 0.44339 0.42788 0.44339 1.2588 0 0.80305-0.39068 1.327-0.39067 0.524-1.2123 0.524-0.68522 0-1.0883-0.46199-0.40308-0.46509-0.40308-1.2464 0-0.83716 0.42478-1.3333 0.42478-0.49609 1.141-0.49609zm-0.0186 0.0155zm-2.9704-0.84646h0.56431v0.92708h0.5302v0.45579h-0.5302v2.1673q0 0.17363 0.11782 0.23254 0.0651 0.03411 0.21704 0.03411 0.0403 0 0.0868 0 0.0465-0.0031 0.10852-0.0093v0.44028q-0.0961 0.02791-0.20154 0.04031-0.10232 0.0124-0.22324 0.0124-0.39067 0-0.5302-0.19844-0.13953-0.20154-0.13953-0.5209v-2.1983h-0.44958v-0.45579h0.44958v-0.92708zm-2.9735 0.92708h0.61702q-0.11782 0.31936-0.524 1.4573-0.30386 0.85576-0.5085 1.3953-0.48369 1.2712-0.68213 1.5503-0.19843 0.27905-0.68212 0.27905-0.11783 0-0.18294-0.0093-0.062-0.0093-0.15503-0.03411v-0.5085q0.14573 0.04031 0.21084 0.04961 0.0651 0.0093 0.11472 0.0093 0.15503 0 0.22635-0.05271 0.0744-0.04961 0.12402-0.12402 0.0155-0.02481 0.11162-0.25425 0.0961-0.22944 0.13953-0.34106l-1.2278-3.4168h0.63252l0.88987 2.7037 0.89607-2.7037zm-0.89917-0.08062zm-4.3563 1.7797q0 0.5333 0.22634 0.89297t0.72554 0.35967q0.38757 0 0.63562-0.33176 0.25115-0.33486 0.25115-0.95808 0-0.62942-0.25735-0.93018-0.25735-0.30386-0.63562-0.30386-0.42168 0-0.68523 0.32246-0.26045 0.32246-0.26045 0.94878zm0.84026-1.758q0.38137 0 0.63872 0.16123 0.14883 0.09302 0.33796 0.32556v-1.6774h0.5364v4.5703h-0.50229v-0.46199q-0.19534 0.30696-0.46199 0.44338-0.26665 0.13643-0.61081 0.13643-0.55501 0-0.96119-0.46509-0.40617-0.46819-0.40617-1.2433 0-0.72554 0.36897-1.2557 0.37207-0.5333 1.0604-0.5333zm-4.3005 2.496q0 0.24184 0.17673 0.38137t0.41858 0.13953q0.29456 0 0.57051-0.13643 0.46508-0.22634 0.46508-0.74104v-0.44958q-0.10232 0.06511-0.26355 0.10852t-0.31626 0.06201l-0.33796 0.04341q-0.30386 0.04031-0.45579 0.12712-0.25735 0.14573-0.25735 0.46509zm1.3519-1.1286q0.19224-0.0248 0.25735-0.16123 0.0372-0.07441 0.0372-0.21394 0-0.28525-0.20464-0.41238-0.20154-0.13022-0.57981-0.13022-0.43718 0-0.62012 0.23564-0.10232 0.13022-0.13333 0.38757h-0.5209q0.0155-0.61392 0.39688-0.85266 0.38447-0.24184 0.88987-0.24184 0.58601 0 0.95188 0.22324 0.36277 0.22324 0.36277 0.69453v1.9131q0 0.08682 0.0341 0.13953 0.0372 0.05271 0.15193 0.05271 0.0372 0 0.0837-0.0031 0.0465-0.0062 0.0992-0.0155v0.41238q-0.13023 0.03721-0.19844 0.04651-0.0682 0.0093-0.18603 0.0093-0.28836 0-0.41858-0.20464-0.0682-0.10852-0.0961-0.30696-0.17053 0.22324-0.48989 0.38757t-0.70383 0.16433q-0.46199 0-0.75654-0.27905-0.29146-0.28215-0.29146-0.70383 0-0.46199 0.28835-0.71624 0.28836-0.25425 0.75654-0.31316l0.88987-0.11162zm-0.46199-1.3891zm-3.4696 0.0062q0.35347 0 0.68523 0.16743 0.33176 0.16433 0.5054 0.42788 0.16743 0.25115 0.22324 0.58601 0.04961 0.22944 0.04961 0.73174h-2.434q0.0155 0.5054 0.23874 0.81235 0.22324 0.30386 0.69143 0.30386 0.43718 0 0.69763-0.28835 0.14883-0.16743 0.21084-0.38757h0.5488q-0.0217 0.18293-0.14573 0.40928-0.12092 0.22324-0.27285 0.36587-0.25425 0.24805-0.62942 0.33486-0.20154 0.04961-0.45579 0.04961-0.62012 0-1.0511-0.44958-0.43098-0.45269-0.43098-1.265 0-0.79995 0.43408-1.2991 0.43408-0.49919 1.1348-0.49919zm0.88987 1.4697q-0.03411-0.36277-0.15813-0.57981-0.22944-0.40308-0.76584-0.40308-0.38447 0-0.64492 0.27905-0.26045 0.27595-0.27595 0.70383h1.8448zm-0.94258-1.4759zm-3.7269 0.93328q0.43408 0 0.68523-0.17363 0.25425-0.17363 0.25425-0.62632 0-0.48679-0.35347-0.66352-0.18914-0.09302-0.5054-0.09302h-1.5069v1.5565h1.4263zm-2.0433-2.0867h2.1084q0.5209 0 0.85886 0.15193 0.64182 0.29146 0.64182 1.0759 0 0.40928-0.17053 0.66973-0.16743 0.26045-0.47129 0.41858 0.26665 0.10852 0.39998 0.28525 0.13643 0.17673 0.15193 0.57361l0.0217 0.61082q0.0093 0.26045 0.04341 0.38757 0.05581 0.21704 0.19844 0.27905v0.10232h-0.75654q-0.03101-0.05891-0.04961-0.15193t-0.03101-0.35967l-0.03721-0.75964q-0.0217-0.44648-0.33176-0.59841-0.17673-0.08372-0.555-0.08372h-1.4046v1.9534h-0.61702v-4.5548z"/>
 <g stroke-width=".79375" transform="translate(-7.6276 -23.736)">
  <circle cy="82.493" stroke="#ccc" cx="39.666" r="19.655" fill="#f9f9f9"/>
  <circle cy="88.926" stroke="#ccc" cx="39.666" r="6.9276" fill="#f9f9f9"/>
  <g stroke="#ff4000" transform="translate(-.084274)" fill="none">
   <path stroke-width=".79375" stroke-linecap="round" d="m38.334 77.697c-0.56241-1.0953-1.2051-2.5003 0.39101-2.9307v-2.1002c0-0.86423 1.3003-0.91652 1.2933 0l-0.01662 2.1657c1.162 0.04392 1.9649 0.22459 2.1359 0.77127 0.18286 0.58463-0.25853 1.4272-1.0039 2.2962"/>
   <path stroke-width=".52917" d="m35.229 71.998c0.06202-5.5914 8.5736-5.7173 8.5736 0"/>
   <path stroke-width=".79375" d="m37.183 71.944c0.03211-2.8949 4.4389-2.9601 4.4389 0"/>
  </g>
  <circle cy="81.855" stroke="#ccc" cx="53.219" r="1.6821" fill="#f9f9f9"/>
 </g>
 <path stroke="#f00" stroke-width=".79375" d="m32.052 64.163 13.222 14.523h79.333" fill="none"/>
 <path stroke-width=".26458px" fill="#f00" d="m117.83 74.802h0.64802v0.67593h-0.64802v-0.67593zm-2.29-2.719q0.35346 0 0.68523 0.16743 0.33176 0.16433 0.50539 0.42788 0.16743 0.25115 0.22324 0.58601 0.0496 0.22944 0.0496 0.73174h-2.434q0.0155 0.5054 0.23875 0.81235 0.22324 0.30386 0.69143 0.30386 0.43718 0 0.69763-0.28836 0.14883-0.16743 0.21084-0.38757h0.5488q-0.0217 0.18293-0.14572 0.40928-0.12093 0.22324-0.27286 0.36587-0.25424 0.24805-0.62941 0.33486-0.20154 0.04961-0.45579 0.04961-0.62012 0-1.0511-0.44958-0.43098-0.45268-0.43098-1.265 0-0.79995 0.43408-1.2991 0.43408-0.4992 1.1348-0.4992zm0.88986 1.4697q-0.0341-0.36277-0.15813-0.57981-0.22944-0.40308-0.76584-0.40308-0.38447 0-0.64492 0.27905-0.26045 0.27595-0.27595 0.70383h1.8448zm-0.94257-1.4759zm-3.4354 0.08062h0.5302v0.57361q0.0651-0.16743 0.31936-0.40618 0.25425-0.24185 0.58601-0.24185 0.0155 0 0.0527 0.0031t0.12712 0.0124v0.58911q-0.0496-0.0093-0.093-0.0124-0.0403-0.0031-0.0899-0.0031-0.42168 0-0.64802 0.27285-0.22635 0.26975-0.22635 0.62322v1.91h-0.5581v-3.3207zm-2.9921 0v2.2045q0 0.25425 0.0806 0.41548 0.14883 0.29766 0.555 0.29766 0.58291 0 0.79375-0.5209 0.11472-0.27905 0.11472-0.76584v-1.6309h0.55811v3.3207h-0.5271l0.006-0.48989q-0.10852 0.18914-0.26975 0.31936-0.31936 0.26045-0.77515 0.26045-0.71003 0-0.96738-0.47439-0.13953-0.25425-0.13953-0.67903v-2.2572h0.57051zm0.76585-0.08062zm-2.9735-0.84646h0.5643v0.92708h0.5302v0.45579h-0.5302v2.1673q0 0.17363 0.11782 0.23254 0.0651 0.03411 0.21705 0.03411 0.0403 0 0.0868 0 0.0465-0.0031 0.10852-0.0093v0.44028q-0.0961 0.0279-0.20154 0.04031-0.10231 0.0124-0.22324 0.0124-0.39067 0-0.5302-0.19844-0.13952-0.20154-0.13952-0.5209v-2.1983h-0.44959v-0.45579h0.44959v-0.92708zm-2.0061 0.83096q0.56121 0 0.91158 0.27285 0.35346 0.27285 0.42478 0.93948h-0.54261q-0.0496-0.30696-0.22634-0.5085-0.17673-0.20464-0.56741-0.20464-0.5333 0-0.76274 0.5209-0.14883 0.33796-0.14883 0.83406 0 0.4992 0.21084 0.84026t0.66353 0.34106q0.34726 0 0.5488-0.21084 0.20464-0.21394 0.28215-0.58291h0.54261q-0.093 0.66042-0.46509 0.96738-0.37207 0.30386-0.95188 0.30386-0.65112 0-1.0387-0.47439-0.38757-0.47749-0.38757-1.1906 0-0.87436 0.42478-1.3612 0.42478-0.48679 1.0821-0.48679zm-0.0868 0.0155zm-2.6076 0.09612h0.5674v3.3052h-0.5674v-3.3052zm0-1.2495h0.5674v0.63252h-0.5674v-0.63252zm-2.1332 4.1796q0.39068 0 0.64803-0.32556 0.26045-0.32866 0.26045-0.97978 0-0.39688-0.11473-0.68213-0.21704-0.5488-0.79375-0.5488-0.5798 0-0.79374 0.57981-0.11472 0.31006-0.11472 0.78755 0 0.38447 0.11472 0.65422 0.21704 0.5147 0.79374 0.5147zm-1.4449-2.9301h0.5426v0.44028q0.16743-0.22634 0.36587-0.35037 0.28215-0.18604 0.66353-0.18604 0.56431 0 0.95808 0.43408 0.39377 0.43098 0.39377 1.234 0 1.0852-0.5674 1.5503-0.35967 0.29456-0.83716 0.29456-0.37517 0-0.62942-0.16433-0.14883-0.09302-0.33176-0.31936v1.696h-0.5581v-4.6292zm-4.8245 2.4216q0 0.24185 0.17673 0.38137 0.17673 0.13953 0.41858 0.13953 0.29456 0 0.57051-0.13643 0.46509-0.22634 0.46509-0.74104v-0.44958q-0.10232 0.06511-0.26355 0.10852t-0.31626 0.06201l-0.33796 0.04341q-0.30386 0.04031-0.45579 0.12712-0.25735 0.14573-0.25735 0.46509zm1.3519-1.1286q0.19224-0.02481 0.25735-0.16123 0.03721-0.07441 0.03721-0.21394 0-0.28525-0.20464-0.41238-0.20154-0.13022-0.57981-0.13022-0.43718 0-0.62012 0.23564-0.10232 0.13022-0.13332 0.38757h-0.5209q0.0155-0.61392 0.39688-0.85266 0.38447-0.24185 0.88987-0.24185 0.58601 0 0.95188 0.22324 0.36277 0.22324 0.36277 0.69453v1.9131q0 0.08682 0.03411 0.13953 0.03721 0.05271 0.15193 0.05271 0.03721 0 0.08372-0.0031 0.04651-0.0062 0.09922-0.0155v0.41238q-0.13022 0.03721-0.19844 0.04651-0.06821 0.0093-0.18604 0.0093-0.28835 0-0.41858-0.20464-0.06821-0.10852-0.09612-0.30696-0.17053 0.22324-0.48989 0.38757t-0.70383 0.16433q-0.46199 0-0.75654-0.27905-0.29146-0.28215-0.29146-0.70383 0-0.46199 0.28836-0.71624 0.28835-0.25425 0.75654-0.31316l0.88987-0.11162zm-0.46199-1.3891zm-5.2307 0.0062q0.35347 0 0.68523 0.16743 0.33176 0.16433 0.5054 0.42788 0.16743 0.25115 0.22324 0.58601 0.04961 0.22944 0.04961 0.73174h-2.434q0.0155 0.5054 0.23875 0.81235 0.22324 0.30386 0.69143 0.30386 0.43718 0 0.69763-0.28836 0.14883-0.16743 0.21084-0.38757h0.5488q-0.0217 0.18293-0.14573 0.40928-0.12092 0.22324-0.27285 0.36587-0.25425 0.24805-0.62942 0.33486-0.20154 0.04961-0.45579 0.04961-0.62012 0-1.0511-0.44958-0.43098-0.45268-0.43098-1.265 0-0.79995 0.43408-1.2991 0.438-0.5 1.139-0.5zm0.88987 1.4697q-0.03411-0.36277-0.15813-0.57981-0.22944-0.40308-0.76584-0.40308-0.38447 0-0.64492 0.27905-0.26045 0.27595-0.27595 0.70383h1.8448zm-0.94258-1.4759zm-4.5176-1.1534h0.5364v2.6448l1.4325-1.4108h0.71314l-1.2712 1.2433 1.3426 2.0774h-0.71314l-1.0356-1.6743-0.46819 0.42788v1.2464h-0.5364v-4.5548zm-3.0944 3.6711q0 0.24185 0.17673 0.38137 0.17673 0.13953 0.41858 0.13953 0.29456 0 0.57051-0.13643 0.46509-0.22634 0.46509-0.74104v-0.44958q-0.10232 0.06511-0.26355 0.10852t-0.31626 0.06201l-0.33796 0.04341q-0.30386 0.04031-0.45579 0.12712-0.25735 0.14573-0.25735 0.46509zm1.3519-1.1286q0.19224-0.02481 0.25735-0.16123 0.03721-0.07441 0.03721-0.21394 0-0.28525-0.20464-0.41238-0.20154-0.13022-0.57981-0.13022-0.43718 0-0.62012 0.23564-0.10232 0.13022-0.13332 0.38757h-0.5209q0.0155-0.61392 0.39688-0.85266 0.38447-0.24185 0.88987-0.24185 0.58601 0 0.95188 0.22324 0.36277 0.22324 0.36277 0.69453v1.9131q0 0.08682 0.03411 0.13953 0.03721 0.05271 0.15193 0.05271 0.03721 0 0.08372-0.0031 0.04651-0.0062 0.09922-0.0155v0.41238q-0.13022 0.03721-0.19844 0.04651-0.06821 0.0093-0.18604 0.0093-0.28836 0-0.41858-0.20464-0.06821-0.10852-0.09612-0.30696-0.17053 0.22324-0.48989 0.38757t-0.70383 0.16433q-0.46199 0-0.75654-0.27905-0.29146-0.28215-0.29146-0.70383 0-0.46199 0.28836-0.71624 0.28835-0.25425 0.75654-0.31316l0.88987-0.11162zm-0.46199-1.3891zm-2.9673-0.84646h0.56431v0.92708h0.5302v0.45579h-0.5302v2.1673q0 0.17363 0.11782 0.23254 0.06511 0.03411 0.21704 0.03411 0.04031 0 0.08682 0 0.04651-0.0031 0.10852-0.0093v0.44028q-0.09612 0.0279-0.20154 0.04031-0.10232 0.0124-0.22324 0.0124-0.39067 0-0.5302-0.19844-0.13953-0.20154-0.13953-0.5209v-2.1983h-0.44958v-0.45579h0.44958v-0.92708zm-4.0897 3.8881q0.555 0 0.75964-0.41858 0.20774-0.42168 0.20774-0.93638 0-0.46509-0.14883-0.75654-0.23564-0.45889-0.81235-0.45889-0.5116 0-0.74414 0.39067t-0.23254 0.94258q0 0.5302 0.23254 0.88367t0.73794 0.35347zm0.0217-3.0572q0.64182 0 1.0852 0.42788t0.44338 1.2588q0 0.80305-0.39067 1.3271-0.39067 0.524-1.2123 0.524-0.68523 0-1.0883-0.46199-0.40308-0.46509-0.40308-1.2464 0-0.83716 0.42478-1.3333 0.42478-0.49609 1.141-0.49609zm-0.0186 0.0155zm-2.9704-0.84646h0.56431v0.92708h0.5302v0.45579h-0.5302v2.1673q0 0.17363 0.11782 0.23254 0.06511 0.03411 0.21704 0.03411 0.04031 0 0.08682 0 0.04651-0.0031 0.10852-0.0093v0.44028q-0.09612 0.0279-0.20154 0.04031-0.10232 0.0124-0.22324 0.0124-0.39067 0-0.5302-0.19844-0.13953-0.20154-0.13953-0.5209v-2.1983h-0.44958v-0.45579h0.44958v-0.92708zm-5.0602-0.30696h0.5364v2.6448l1.4325-1.4108h0.71314l-1.2712 1.2433 1.3426 2.0774h-0.71314l-1.0356-1.6743-0.46819 0.42788v1.2464h-0.5364v-4.5548zm-1.8821 1.1379q0.56121 0 0.91157 0.27285 0.35347 0.27285 0.42478 0.93948h-0.5426q-0.04961-0.30696-0.22634-0.5085-0.17673-0.20464-0.56741-0.20464-0.5333 0-0.76274 0.5209-0.14883 0.33796-0.14883 0.83406 0 0.4992 0.21084 0.84026t0.66352 0.34106q0.34727 0 0.5488-0.21084 0.20464-0.21394 0.28215-0.58291h0.5426q-0.09302 0.66042-0.46509 0.96738-0.37207 0.30386-0.95188 0.30386-0.65112 0-1.0387-0.47439-0.38757-0.47749-0.38757-1.1906 0-0.87436 0.42478-1.3612 0.42478-0.48679 1.0821-0.48679zm-0.08682 0.0155zm-2.5921-1.1534h0.55811v4.5548h-0.55811v-4.5548zm-1.4294 1.2495h0.56741v3.3052h-0.56741v-3.3052zm0-1.2495h0.56741v0.63252h-0.56741v-0.63252zm-2.5952-0.12402q0.86506 0 1.3426 0.45579 0.47749 0.45579 0.5302 1.0356h-0.60151q-0.10232-0.44028-0.40928-0.69763-0.30386-0.25735-0.85576-0.25735-0.67283 0-1.0883 0.47439-0.41238 0.47129-0.41238 1.448 0 0.79995 0.37207 1.2991 0.37517 0.49609 1.1162 0.49609 0.68213 0 1.0387-0.524 0.18914-0.27595 0.28215-0.72554h0.60151q-0.08062 0.71934-0.5333 1.2061-0.5426 0.58601-1.4635 0.58601-0.79375 0-1.3333-0.48059-0.71004-0.63562-0.71004-1.9627 0-1.0077 0.5333-1.6526 0.57671-0.70073 1.5906-0.70073zm-0.12402 0z"/>
 <path stroke-width=".26458px" fill="#1a1a1a" d="m48.826 89.162q0.49299-0.96118 0.63562-1.4015 0.21704-0.66663 0.21704-1.5627t-0.25115-1.6402q-0.15503-0.45889-0.61082-1.3208h0.37517q0.47749 0.76274 0.57671 0.94258 0.10232 0.17673 0.22014 0.48989 0.14883 0.38757 0.21084 0.76584 0.06511 0.37827 0.06511 0.72864 0 0.91777-0.29146 1.6371-0.18294 0.46199-0.75964 1.3612h-0.38757zm-2.0278-1.6557q0.555 0 0.75964-0.41858 0.20774-0.42168 0.20774-0.93638 0-0.46509-0.14883-0.75654-0.23564-0.45889-0.81235-0.45889-0.5116 0-0.74414 0.39067t-0.23254 0.94258q0 0.5302 0.23254 0.88367t0.73794 0.35347zm0.0217-3.0572q0.64182 0 1.0852 0.42788t0.44338 1.2588q0 0.80305-0.39067 1.3271-0.39067 0.524-1.2123 0.524-0.68523 0-1.0883-0.46199-0.40308-0.46509-0.40308-1.2464 0-0.83716 0.42478-1.3333 0.42478-0.49609 1.141-0.49609zm-0.0186 0.0155zm-3.2153-0.0155q0.56121 0 0.91157 0.27285 0.35347 0.27285 0.42478 0.93948h-0.5426q-0.04961-0.30696-0.22634-0.5085-0.17673-0.20464-0.56741-0.20464-0.5333 0-0.76274 0.5209-0.14883 0.33796-0.14883 0.83406 0 0.4992 0.21084 0.84026t0.66353 0.34106q0.34726 0 0.5488-0.21084 0.20464-0.21394 0.28215-0.58291h0.5426q-0.09302 0.66042-0.46509 0.96738-0.37207 0.30386-0.95188 0.30386-0.65112 0-1.0387-0.47439-0.38757-0.47749-0.38757-1.1906 0-0.87436 0.42478-1.3612 0.42478-0.48679 1.0821-0.48679zm-0.08682 0.0155zm-3.3455 0.0062q0.35347 0 0.68523 0.16743 0.33176 0.16433 0.5054 0.42788 0.16743 0.25115 0.22324 0.58601 0.04961 0.22944 0.04961 0.73174h-2.434q0.0155 0.5054 0.23874 0.81235 0.22324 0.30386 0.69143 0.30386 0.43718 0 0.69763-0.28836 0.14883-0.16743 0.21084-0.38757h0.5488q-0.0217 0.18293-0.14573 0.40928-0.12092 0.22324-0.27285 0.36587-0.25425 0.24805-0.62942 0.33486-0.20154 0.04961-0.45579 0.04961-0.62012 0-1.0511-0.44958-0.43098-0.45268-0.43098-1.265 0-0.79995 0.43408-1.2991 0.43408-0.4992 1.1348-0.4992zm0.88987 1.4697q-0.03411-0.36277-0.15813-0.57981-0.22944-0.40308-0.76584-0.40308-0.38447 0-0.64492 0.27905-0.26045 0.27595-0.27595 0.70383h1.8448zm-0.94258-1.4759zm-1.9813-1.2278q-0.48679 0.94568-0.63252 1.3922-0.22014 0.67903-0.22014 1.5689 0 0.89917 0.25115 1.6433 0.15503 0.45889 0.61082 1.3208h-0.37517q-0.45268-0.70693-0.56121-0.90227-0.10852-0.19534-0.23564-0.5302-0.17363-0.45889-0.24185-0.97978-0.03411-0.26975-0.03411-0.5147 0-0.91777 0.28836-1.634 0.18294-0.45579 0.76274-1.3643h0.38757zm-6.2074 1.3084v2.2045q0 0.25425 0.08061 0.41548 0.14883 0.29766 0.555 0.29766 0.58291 0 0.79375-0.5209 0.11472-0.27905 0.11472-0.76584v-1.6309h0.5581v3.3207h-0.5271l0.0062-0.48989q-0.10852 0.18914-0.26975 0.31936-0.31936 0.26045-0.77515 0.26045-0.71003 0-0.96738-0.47439-0.13953-0.25425-0.13953-0.67903v-2.2572h0.57051zm0.76584-0.08061zm-3.4292 0.08061h0.5302v0.57361q0.06511-0.16743 0.31936-0.40618 0.25425-0.24185 0.58601-0.24185 0.0155 0 0.05271 0.0031t0.12712 0.0124v0.58911q-0.04961-0.0093-0.09302-0.0124-0.04031-0.0031-0.08992-0.0031-0.42168 0-0.64802 0.27285-0.22634 0.26975-0.22634 0.62322v1.91h-0.55811v-3.3207zm-1.4294 0.0155h0.56741v3.3052h-0.56741v-3.3052zm0-1.2495h0.56741v0.63252h-0.56741v-0.63252zm-3.5347-0.0155h0.5581v1.6991q0.19844-0.25115 0.35657-0.35347 0.26975-0.17673 0.67283-0.17673 0.72244 0 0.97978 0.5054 0.13953 0.27595 0.13953 0.76584v2.1301h-0.57361v-2.0929q0-0.36587-0.09302-0.5364-0.15193-0.27285-0.57051-0.27285-0.34726 0-0.62942 0.23874-0.28215 0.23875-0.28215 0.90227v1.7611h-0.5581v-4.5703zm-1.8945 1.1534q0.56121 0 0.91157 0.27285 0.35347 0.27285 0.42478 0.93948h-0.5426q-0.04961-0.30696-0.22634-0.5085-0.17673-0.20464-0.56741-0.20464-0.5333 0-0.76274 0.5209-0.14883 0.33796-0.14883 0.83406 0 0.4992 0.21084 0.84026t0.66353 0.34106q0.34726 0 0.5488-0.21084 0.20464-0.21394 0.28215-0.58291h0.5426q-0.09302 0.66042-0.46509 0.96738-0.37207 0.30386-0.95188 0.30386-0.65112 0-1.0387-0.47439-0.38757-0.47749-0.38757-1.1906 0-0.87436 0.42478-1.3612 0.42478-0.48679 1.0821-0.48679zm-0.08682 0.0155zm-3.4106 3.0417q0.555 0 0.75964-0.41858 0.20774-0.42168 0.20774-0.93638 0-0.46509-0.14883-0.75654-0.23564-0.45889-0.81235-0.45889-0.5116 0-0.74414 0.39067t-0.23254 0.94258q0 0.5302 0.23254 0.88367t0.73794 0.35347zm0.0217-3.0572q0.64182 0 1.0852 0.42788t0.44338 1.2588q0 0.80305-0.39067 1.3271-0.39067 0.524-1.2123 0.524-0.68523 0-1.0883-0.46199-0.40308-0.46509-0.40308-1.2464 0-0.83716 0.42478-1.3333 0.42478-0.49609 1.141-0.49609zm-0.0186 0.0155zm-5.4291-1.1534h2.0495q0.60772 0 0.97978 0.34416 0.37207 0.34106 0.37207 0.96118 0 0.5333-0.33176 0.93018-0.33176 0.39377-1.0201 0.39377h-1.4325v1.9255h-0.61702v-4.5548zm2.7781 1.3084q0-0.5023-0.37207-0.68213-0.20464-0.09612-0.56121-0.09612h-1.2278v1.5782h1.2278q0.41548 0 0.67283-0.17673 0.26045-0.17673 0.26045-0.62322z"/>
</svg>
